Pacifico-Light.ufo
<glyph name="parenright" format="1">
  <advance width="470"/>
  <unicode hex="0029"/>
  <outline>
    <contour>
      <point x="118" y="-121" type="curve" smooth="yes"/>
      <point x="296" y="-121"/>
      <point x="408" y="48"/>
      <point x="408" y="263" type="curve" smooth="yes"/>
      <point x="408" y="422"/>
      <point x="341" y="573"/>
      <point x="206" y="641" type="curve" smooth="yes"/>
      <point x="197" y="645"/>
      <point x="190" y="646"/>
      <point x="184" y="646" type="curve" smooth="yes"/>
      <point x="172" y="646"/>
      <point x="164" y="639"/>
      <point x="164" y="628" type="curve" smooth="yes"/>
      <point x="164" y="616"/>
      <point x="175" y="599"/>
      <point x="198" y="579" type="curve" smooth="yes"/>
      <point x="292" y="498"/>
      <point x="337" y="372"/>
      <point x="337" y="250" type="curve" smooth="yes"/>
      <point x="337" y="87"/>
      <point x="270" y="-51"/>
      <point x="135" y="-74" type="curve" smooth="yes"/>
      <point x="94" y="-81"/>
      <point x="57" y="-74"/>
      <point x="57" y="-102" type="curve" smooth="yes"/>
      <point x="57" y="-118"/>
      <point x="96" y="-121"/>
    </contour>
  </outline>
</glyph>
<glyph name="asterisk" format="1">
  <advance width="490"/>
  <unicode hex="002A"/>
  <outline>
    <contour>
      <point x="285" y="302" type="curve" smooth="yes"/>
      <point x="304" y="302"/>
      <point x="321" y="312"/>
      <point x="321" y="327" type="curve"/>
      <point x="325" y="437" type="line"/>
      <point x="406" y="362" type="line"/>
      <point x="420" y="348"/>
      <point x="458" y="361"/>
      <point x="458" y="387" type="curve" smooth="yes"/>
      <point x="458" y="410"/>
      <point x="405" y="427"/>
      <point x="348" y="457" type="curve"/>
      <point x="384" y="461"/>
      <point x="473" y="470"/>
      <point x="473" y="496" type="curve" smooth="yes"/>
      <point x="473" y="522"/>
      <point x="445" y="538"/>
      <point x="429" y="529" type="curve" smooth="yes"/>
      <point x="395" y="511"/>
      <point x="365" y="497"/>
      <point x="332" y="480" type="curve"/>
      <point x="347" y="513"/>
      <point x="356" y="548"/>
      <point x="369" y="586" type="curve" smooth="yes"/>
      <point x="374" y="603"/>
      <point x="367" y="617"/>
      <point x="346" y="617" type="curve" smooth="yes"/>
      <point x="327" y="617"/>
      <point x="310" y="608"/>
      <point x="310" y="592" type="curve" smooth="yes"/>
      <point x="310" y="553"/>
      <point x="306" y="518"/>
      <point x="306" y="481" type="curve"/>
      <point x="274" y="509"/>
      <point x="228" y="562"/>
      <point x="209" y="562" type="curve" smooth="yes"/>
      <point x="191" y="562"/>
      <point x="172" y="547"/>
      <point x="172" y="530" type="curve" smooth="yes"/>
      <point x="172" y="506"/>
      <point x="247" y="482"/>
      <point x="285" y="462" type="curve"/>
      <point x="278" y="460"/>
      <point x="158" y="453"/>
      <point x="158" y="422" type="curve" smooth="yes"/>
      <point x="158" y="395"/>
      <point x="188" y="379"/>
      <point x="202" y="389" type="curve"/>
      <point x="235" y="406"/>
      <point x="267" y="422"/>
      <point x="298" y="440" type="curve"/>
      <point x="290" y="409"/>
      <point x="260" y="364"/>
      <point x="260" y="322" type="curve" smooth="yes"/>
      <point x="260" y="309"/>
      <point x="270" y="302"/>
    </contour>
  </outline>
</glyph>
<glyph name="comma" format="1">
  <advance width="290"/>
  <unicode hex="002C"/>
  <outline>
    <contour>
      <point x="95" y="-61" type="curve" smooth="yes"/>
      <point x="133" y="-50"/>
      <point x="188" y="16"/>
      <point x="188" y="71" type="curve" smooth="yes"/>
      <point x="188" y="91"/>
      <point x="180" y="107"/>
      <point x="157" y="104" type="curve" smooth="yes"/>
      <point x="138" y="102"/>
      <point x="131" y="93"/>
      <point x="129" y="80" type="curve" smooth="yes"/>
      <point x="124" y="34"/>
      <point x="105" y="-12"/>
      <point x="83" y="-49" type="curve" smooth="yes"/>
      <point x="78" y="-59"/>
      <point x="85" y="-64"/>
    </contour>
  </outline>
</glyph>
<glyph name="three" format="1">
  <advance width="417"/>
  <unicode hex="0033"/>
  <outline>
    <contour>
      <point x="358" y="139" type="curve" smooth="yes"/>
      <point x="358" y="210"/>
      <point x="333" y="251"/>
      <point x="260" y="274" type="curve"/>
      <point x="312" y="290"/>
      <point x="358" y="331"/>
      <point x="354" y="395" type="curve" smooth="yes"/>
      <point x="352" y="447"/>
      <point x="302" y="486"/>
      <point x="245" y="489" type="curve" smooth="yes"/>
      <point x="178" y="493"/>
      <point x="131" y="477"/>
      <point x="97" y="427" type="curve" smooth="yes"/>
      <point x="87" y="414"/>
      <point x="115" y="392"/>
      <point x="128" y="410" type="curve" smooth="yes"/>
      <point x="175" y="473"/>
      <point x="306" y="464"/>
      <point x="306" y="390" type="curve" smooth="yes"/>
      <point x="306" y="330"/>
      <point x="261" y="288"/>
      <point x="152" y="288" type="curve" smooth="yes"/>
      <point x="136" y="288"/>
      <point x="129" y="280"/>
      <point x="129" y="272" type="curve" smooth="yes"/>
      <point x="129" y="264"/>
      <point x="136" y="256"/>
      <point x="147" y="256" type="curve" smooth="yes"/>
      <point x="239" y="256"/>
      <point x="311" y="232"/>
      <point x="307" y="140" type="curve" smooth="yes"/>
      <point x="302" y="16"/>
      <point x="137" y="-3"/>
      <point x="83" y="76" type="curve" smooth="yes"/>
      <point x="48" y="126"/>
      <point x="24" y="93"/>
      <point x="30" y="77" type="curve" smooth="yes"/>
      <point x="42" y="43"/>
      <point x="90" y="-6"/>
      <point x="175" y="-12" type="curve" smooth="yes"/>
      <point x="285" y="-21"/>
      <point x="359" y="44"/>
    </contour>
  </outline>
</glyph>
<glyph name="colon" format="1">
  <advance width="240"/>
  <unicode hex="003A"/>
  <outline>
    <contour>
      <point x="166" y="0" type="curve" smooth="yes"/>
      <point x="200" y="0"/>
      <point x="219" y="21"/>
      <point x="219" y="55" type="curve" smooth="yes"/>
      <point x="219" y="85"/>
      <point x="203" y="100"/>
      <point x="172" y="100" type="curve" smooth="yes"/>
      <point x="138" y="100"/>
      <point x="120" y="79"/>
      <point x="120" y="45" type="curve" smooth="yes"/>
      <point x="120" y="14"/>
      <point x="135" y="0"/>
    </contour>
    <contour>
      <point x="186" y="229" type="curve" smooth="yes"/>
      <point x="221" y="229"/>
      <point x="240" y="250"/>
      <point x="240" y="283" type="curve" smooth="yes"/>
      <point x="240" y="313"/>
      <point x="224" y="329"/>
      <point x="192" y="329" type="curve" smooth="yes"/>
      <point x="159" y="329"/>
      <point x="140" y="308"/>
      <point x="140" y="273" type="curve" smooth="yes"/>
      <point x="140" y="243"/>
      <point x="155" y="229"/>
    </contour>
  </outline>
</glyph>
<glyph name="B" format="1">
  <advance width="556"/>
  <unicode hex="0042"/>
  <outline>
    <contour>
      <point x="178" y="-60" type="curve" smooth="yes"/>
      <point x="339" y="-60"/>
      <point x="528" y="55"/>
      <point x="528" y="174" type="curve" smooth="yes"/>
      <point x="528" y="237"/>
      <point x="482" y="285"/>
      <point x="387" y="310" type="curve"/>
      <point x="549" y="342"/>
      <point x="595" y="414"/>
      <point x="595" y="485" type="curve" smooth="yes"/>
      <point x="595" y="583"/>
      <point x="491" y="676"/>
      <point x="311" y="676" type="curve" smooth="yes"/>
      <point x="165" y="676"/>
      <point x="82" y="623"/>
      <point x="23" y="565" type="curve" smooth="yes"/>
      <point x="4" y="547"/>
      <point x="33" y="505"/>
      <point x="69" y="538" type="curve" smooth="yes"/>
      <point x="128" y="589"/>
      <point x="195" y="627"/>
      <point x="314" y="627" type="curve" smooth="yes"/>
      <point x="454" y="627"/>
      <point x="529" y="561"/>
      <point x="536" y="492" type="curve" smooth="yes"/>
      <point x="542" y="417"/>
      <point x="472" y="339"/>
      <point x="308" y="341" type="curve" smooth="yes"/>
      <point x="278" y="341" type="line" smooth="yes"/>
      <point x="258" y="342"/>
      <point x="250" y="332"/>
      <point x="250" y="321" type="curve" smooth="yes"/>
      <point x="250" y="266"/>
      <point x="463" y="304"/>
      <point x="463" y="169" type="curve" smooth="yes"/>
      <point x="463" y="79"/>
      <point x="322" y="-19"/>
      <point x="176" y="-19" type="curve" smooth="yes"/>
      <point x="137" y="-19"/>
      <point x="137" y="0"/>
      <point x="137" y="21" type="curve" smooth="yes"/>
      <point x="137" y="157"/>
      <point x="162" y="413"/>
      <point x="221" y="504" type="curve"/>
      <point x="213" y="514"/>
      <point x="205" y="518"/>
      <point x="195" y="518" type="curve" smooth="yes"/>
      <point x="104" y="518"/>
      <point x="81" y="120"/>
      <point x="81" y="-12" type="curve" smooth="yes"/>
      <point x="81" y="-41"/>
      <point x="121" y="-60"/>
    </contour>
    <contour>
      <point x="342" y="658" type="move" name="top"/>
    </contour>
  </outline>
</glyph>
<glyph name="C" format="1">
  <advance width="576"/>
  <unicode hex="0043"/>
  <outline>
    <contour>
      <point x="278" y="-93" type="curve" smooth="yes"/>
      <point x="419" y="-93"/>
      <point x="539" y="-12"/>
      <point x="591" y="92" type="curve" smooth="yes"/>
      <point x="595" y="101"/>
      <point x="577" y="118"/>
      <point x="570" y="111" type="curve" smooth="yes"/>
      <point x="501" y="27"/>
      <point x="426" y="-44"/>
      <point x="299" y="-44" type="curve" smooth="yes"/>
      <point x="171" y="-44"/>
      <point x="115" y="65"/>
      <point x="115" y="196" type="curve" smooth="yes"/>
      <point x="116" y="390"/>
      <point x="245" y="618"/>
      <point x="449" y="618" type="curve" smooth="yes"/>
      <point x="506" y="618"/>
      <point x="532" y="593"/>
      <point x="532" y="537" type="curve" smooth="yes"/>
      <point x="532" y="458"/>
      <point x="477" y="378"/>
      <point x="394" y="374" type="curve" smooth="yes"/>
      <point x="368" y="372"/>
      <point x="346" y="373"/>
      <point x="346" y="352" type="curve" smooth="yes"/>
      <point x="346" y="332"/>
      <point x="361" y="327"/>
      <point x="396" y="330" type="curve" smooth="yes"/>
      <point x="508" y="339"/>
      <point x="587" y="443"/>
      <point x="587" y="543" type="curve" smooth="yes"/>
      <point x="587" y="623"/>
      <point x="536" y="669"/>
      <point x="455" y="669" type="curve" smooth="yes"/>
      <point x="206" y="669"/>
      <point x="51" y="403"/>
      <point x="49" y="182" type="curve" smooth="yes"/>
      <point x="49" y="32"/>
      <point x="118" y="-93"/>
    </contour>
    <contour>
      <point x="278" y="-70" type="move" name="bot"/>
    </contour>
    <contour>
      <point x="452" y="658" type="move" name="top"/>
    </contour>
  </outline>
</glyph>
<glyph name="E" format="1">
  <advance width="515"/>
  <unicode hex="0045"/>
  <outline>
    <contour>
      <point x="243" y="-96" type="curve" smooth="yes"/>
      <point x="372" y="-96"/>
      <point x="524" y="-32"/>
      <point x="595" y="77" type="curve" smooth="yes"/>
      <point x="599" y="83"/>
      <point x="602" y="90"/>
      <point x="602" y="96" type="curve" smooth="yes"/>
      <point x="602" y="110"/>
      <point x="592" y="118"/>
      <point x="582" y="118" type="curve" smooth="yes"/>
      <point x="576" y="118"/>
      <point x="567" y="115"/>
      <point x="561" y="104" type="curve" smooth="yes"/>
      <point x="502" y="17"/>
      <point x="359" y="-51"/>
      <point x="251" y="-51" type="curve" smooth="yes"/>
      <point x="165" y="-51"/>
      <point x="84" y="-23"/>
      <point x="91" y="69" type="curve" smooth="yes"/>
      <point x="99" y="173"/>
      <point x="209" y="265"/>
      <point x="333" y="265" type="curve" smooth="yes"/>
      <point x="360" y="265"/>
      <point x="373" y="274"/>
      <point x="373" y="291" type="curve" smooth="yes"/>
      <point x="373" y="303"/>
      <point x="366" y="313"/>
      <point x="354" y="316" type="curve" smooth="yes"/>
      <point x="242" y="341"/>
      <point x="178" y="408"/>
      <point x="178" y="492" type="curve" smooth="yes"/>
      <point x="178" y="586"/>
      <point x="263" y="636"/>
      <point x="380" y="636" type="curve" smooth="yes"/>
      <point x="437" y="636"/>
      <point x="494" y="618"/>
      <point x="530" y="582" type="curve"/>
      <point x="506" y="562"/>
      <point x="491" y="537"/>
      <point x="501" y="505" type="curve" smooth="yes"/>
      <point x="506" y="491"/>
      <point x="523" y="482"/>
      <point x="541" y="482" type="curve" smooth="yes"/>
      <point x="563" y="482"/>
      <point x="594" y="505"/>
      <point x="589" y="556" type="curve"/>
      <point x="583" y="637"/>
      <point x="480" y="682"/>
      <point x="373" y="682" type="curve" smooth="yes"/>
      <point x="250" y="682"/>
      <point x="121" y="623"/>
      <point x="121" y="489" type="curve" smooth="yes"/>
      <point x="121" y="417"/>
      <point x="169" y="336"/>
      <point x="279" y="299" type="curve"/>
      <point x="178" y="286"/>
      <point x="39" y="199"/>
      <point x="32" y="73" type="curve" smooth="yes"/>
      <point x="25" y="-52"/>
      <point x="127" y="-96"/>
    </contour>
    <contour>
      <point x="278" y="-87" type="move" name="ogonek"/>
    </contour>
    <contour>
      <point x="258" y="-83" type="move" name="bot"/>
    </contour>
    <contour>
      <point x="422" y="658" type="move" name="top"/>
    </contour>
  </outline>
</glyph>
<glyph name="F" format="1">
  <advance width="440"/>
  <unicode hex="0046"/>
  <outline>
    <contour>
      <point x="128" y="-68" type="curve" smooth="yes"/>
      <point x="251" y="-68"/>
      <point x="306" y="27"/>
      <point x="345" y="270" type="curve"/>
      <point x="394" y="270"/>
      <point x="427" y="271"/>
      <point x="450" y="277" type="curve" smooth="yes"/>
      <point x="457" y="279"/>
      <point x="465" y="287"/>
      <point x="465" y="295" type="curve" smooth="yes"/>
      <point x="465" y="302"/>
      <point x="464" y="310"/>
      <point x="447" y="313" type="curve" smooth="yes"/>
      <point x="431" y="316"/>
      <point x="396" y="314"/>
      <point x="353" y="314" type="curve"/>
      <point x="358" y="335"/>
      <point x="405" y="546"/>
      <point x="422" y="615" type="curve"/>
      <point x="472" y="622"/>
      <point x="581" y="619"/>
      <point x="664" y="608" type="curve"/>
      <point x="690" y="606"/>
      <point x="703" y="615"/>
      <point x="703" y="635" type="curve"/>
      <point x="703" y="667"/>
      <point x="516" y="669"/>
      <point x="461" y="669" type="curve" smooth="yes"/>
      <point x="223" y="669"/>
      <point x="-92" y="577"/>
      <point x="78" y="278" type="curve"/>
      <point x="94" y="259"/>
      <point x="147" y="248"/>
      <point x="123" y="288" type="curve" smooth="yes"/>
      <point x="-19" y="522"/>
      <point x="187" y="587"/>
      <point x="370" y="615" type="curve"/>
      <point x="350" y="529"/>
      <point x="329" y="426"/>
      <point x="303" y="313" type="curve"/>
      <point x="239" y="311"/>
      <point x="216" y="303"/>
      <point x="216" y="289" type="curve" smooth="yes"/>
      <point x="215" y="277"/>
      <point x="223" y="272"/>
      <point x="250" y="270" type="curve" smooth="yes"/>
      <point x="259" y="270"/>
      <point x="282" y="269"/>
      <point x="295" y="269" type="curve"/>
      <point x="281" y="209"/>
      <point x="253" y="-25"/>
      <point x="137" y="-25" type="curve" smooth="yes"/>
      <point x="76" y="-25"/>
      <point x="95" y="6"/>
      <point x="62" y="6" type="curve" smooth="yes"/>
      <point x="49" y="6"/>
      <point x="37" y="-7"/>
      <point x="37" y="-23" type="curve" smooth="yes"/>
      <point x="35" y="-57"/>
      <point x="90" y="-68"/>
    </contour>
    <contour>
      <point x="412" y="658" type="move" name="top"/>
    </contour>
  </outline>
</glyph>
<glyph name="K" format="1">
  <advance width="561"/>
  <unicode hex="004B"/>
  <outline>
    <contour>
      <point x="612" y="-137" type="curve" smooth="yes"/>
      <point x="643" y="-137"/>
      <point x="705" y="-125"/>
      <point x="715" y="-104" type="curve"/>
      <point x="721" y="-88"/>
      <point x="711" y="-78"/>
      <point x="705" y="-78" type="curve" smooth="yes"/>
      <point x="688" y="-78"/>
      <point x="664" y="-91"/>
      <point x="640" y="-91" type="curve"/>
      <point x="507" y="-97"/>
      <point x="491" y="-25"/>
      <point x="347" y="309" type="curve"/>
      <point x="526" y="400"/>
      <point x="646" y="531"/>
      <point x="673" y="591" type="curve" smooth="yes"/>
      <point x="685" y="618"/>
      <point x="685" y="639"/>
      <point x="664" y="639" type="curve" smooth="yes"/>
      <point x="647" y="639"/>
      <point x="639" y="618"/>
      <point x="613" y="583" type="curve" smooth="yes"/>
      <point x="554" y="503"/>
      <point x="455" y="419"/>
      <point x="315" y="341" type="curve"/>
      <point x="332" y="445"/>
      <point x="332" y="540"/>
      <point x="332" y="629" type="curve" smooth="yes"/>
      <point x="332" y="643"/>
      <point x="323" y="648"/>
      <point x="303" y="648" type="curve" smooth="yes"/>
      <point x="155" y="648"/>
      <point x="-43" y="591"/>
      <point x="-36" y="348" type="curve" smooth="yes"/>
      <point x="-36" y="330"/>
      <point x="-23" y="319"/>
      <point x="-6" y="322" type="curve" smooth="yes"/>
      <point x="14" y="325"/>
      <point x="21" y="333"/>
      <point x="21" y="344" type="curve" smooth="yes"/>
      <point x="14" y="569"/>
      <point x="168" y="604"/>
      <point x="285" y="607" type="curve"/>
      <point x="247" y="117"/>
      <point x="174" y="-58"/>
      <point x="63" y="-58" type="curve" smooth="yes"/>
      <point x="39" y="-58"/>
      <point x="12" y="-47"/>
      <point x="-1" y="-47" type="curve" smooth="yes"/>
      <point x="-13" y="-47"/>
      <point x="-27" y="-63"/>
      <point x="-27" y="-77" type="curve" smooth="yes"/>
      <point x="-27" y="-97"/>
      <point x="36" y="-104"/>
      <point x="65" y="-104" type="curve" smooth="yes"/>
      <point x="215" y="-104"/>
      <point x="262" y="24"/>
      <point x="301" y="292" type="curve"/>
      <point x="431" y="-30"/>
      <point x="464" y="-137"/>
    </contour>
    <contour>
      <point x="334" y="-114" type="move" name="bot"/>
    </contour>
    <contour>
      <point x="502" y="658" type="move" name="top"/>
    </contour>
  </outline>
</glyph>
<glyph name="O" format="1">
  <advance width="659"/>
  <unicode hex="004F"/>
  <outline>
    <contour>
      <point x="329" y="-57" type="curve" smooth="yes"/>
      <point x="192" y="-57"/>
      <point x="140" y="38"/>
      <point x="143" y="201" type="curve" smooth="yes"/>
      <point x="147" y="454"/>
      <point x="307" y="639"/>
      <point x="442" y="639" type="curve" smooth="yes"/>
      <point x="569" y="639"/>
      <point x="617" y="542"/>
      <point x="614" y="375" type="curve" smooth="yes"/>
      <point x="610" y="126"/>
      <point x="457" y="-57"/>
    </contour>
    <contour>
      <point x="332" y="-106" type="curve" smooth="yes"/>
      <point x="527" y="-106"/>
      <point x="671" y="153"/>
      <point x="671" y="376" type="curve" smooth="yes"/>
      <point x="671" y="601"/>
      <point x="586" y="687"/>
      <point x="435" y="687" type="curve" smooth="yes"/>
      <point x="233" y="687"/>
      <point x="86" y="424"/>
      <point x="86" y="201" type="curve" smooth="yes"/>
      <point x="86" y="-21"/>
      <point x="174" y="-106"/>
    </contour>
    <contour>
      <point x="337" y="-92" type="move" name="ogonek"/>
    </contour>
    <contour>
      <point x="482" y="658" type="move" name="top"/>
    </contour>
  </outline>
</glyph>
<glyph name="Q" format="1">
  <advance width="643"/>
  <unicode hex="0051"/>
  <outline>
    <contour>
      <point x="942" y="-188" type="curve" smooth="yes"/>
      <point x="984" y="-155"/>
      <point x="997" y="-126"/>
      <point x="1002" y="-114" type="curve"/>
      <point x="1006" y="-104"/>
      <point x="1006" y="-99"/>
      <point x="1003" y="-95" type="curve"/>
      <point x="1000" y="-90"/>
      <point x="988" y="-86"/>
      <point x="983" y="-89" type="curve" smooth="yes"/>
      <point x="980" y="-91"/>
      <point x="979" y="-94"/>
      <point x="976" y="-98" type="curve"/>
      <point x="962" y="-114"/>
      <point x="951" y="-124"/>
      <point x="935" y="-137" type="curve" smooth="yes"/>
      <point x="867" y="-190"/>
      <point x="788" y="-195"/>
      <point x="479" y="8" type="curve"/>
      <point x="473" y="14"/>
      <point x="447" y="-16"/>
      <point x="456" y="-23" type="curve"/>
      <point x="735" y="-201"/>
      <point x="829" y="-277"/>
    </contour>
    <component base="O"/>
  </outline>
</glyph>
<glyph name="c" format="1">
  <advance width="281"/>
  <unicode hex="0063"/>
  <outline>
    <contour>
      <point x="142" y="-5" type="curve" smooth="yes"/>
      <point x="250" y="-18"/>
      <point x="324" y="43"/>
      <point x="359" y="105" type="curve" smooth="yes"/>
      <point x="372" y="126"/>
      <point x="349" y="154"/>
      <point x="335" y="135" type="curve" smooth="yes"/>
      <point x="292" y="70"/>
      <point x="233" y="27"/>
      <point x="154" y="37" type="curve" smooth="yes"/>
      <point x="108" y="43"/>
      <point x="83" y="81"/>
      <point x="83" y="135" type="curve" smooth="yes"/>
      <point x="85" y="238"/>
      <point x="158" y="285"/>
      <point x="194" y="284" type="curve" smooth="yes"/>
      <point x="218" y="284"/>
      <point x="230" y="268"/>
      <point x="230" y="248" type="curve" smooth="yes"/>
      <point x="230" y="233"/>
      <point x="224" y="216"/>
      <point x="211" y="200" type="curve" smooth="yes"/>
      <point x="202" y="188"/>
      <point x="221" y="163"/>
      <point x="242" y="182" type="curve" smooth="yes"/>
      <point x="256" y="194"/>
      <point x="272" y="213"/>
      <point x="274" y="253" type="curve" smooth="yes"/>
      <point x="276" y="299"/>
      <point x="242" y="330"/>
      <point x="193" y="330" type="curve" smooth="yes"/>
      <point x="109" y="330"/>
      <point x="35" y="235"/>
      <point x="26" y="140" type="curve" smooth="yes"/>
      <point x="19" y="63"/>
      <point x="66" y="3"/>
    </contour>
    <contour>
      <point x="146" y="0" type="move" name="bot"/>
    </contour>
    <contour>
      <point x="222" y="333" type="move" name="top"/>
    </contour>
  </outline>
</glyph>
<glyph name="l" format="1">
  <advance width="226"/>
  <unicode hex="006C"/>
  <outline>
    <contour>
      <point x="140" y="-0" type="curve" smooth="yes"/>
      <point x="193" y="-0"/>
      <point x="245" y="26"/>
      <point x="298" y="85" type="curve" smooth="yes"/>
      <point x="322" y="112"/>
      <point x="291" y="133"/>
      <point x="278" y="120" type="curve" smooth="yes"/>
      <point x="244" y="80"/>
      <point x="196" y="42"/>
      <point x="157" y="42" type="curve" smooth="yes"/>
      <point x="93" y="42"/>
      <point x="92" y="119"/>
      <point x="107" y="223" type="curve"/>
      <point x="211" y="303"/>
      <point x="351" y="463"/>
      <point x="349" y="588" type="curve" smooth="yes"/>
      <point x="349" y="624"/>
      <point x="327" y="657"/>
      <point x="289" y="657" type="curve" smooth="yes"/>
      <point x="154" y="657"/>
      <point x="62" y="350"/>
      <point x="48" y="179" type="curve" smooth="yes"/>
      <point x="40" y="65"/>
      <point x="63" y="-0"/>
    </contour>
    <contour>
      <point x="110" y="270" type="curve"/>
      <point x="124" y="358"/>
      <point x="199" y="600"/>
      <point x="272" y="600" type="curve" smooth="yes"/>
      <point x="291" y="600"/>
      <point x="299" y="588"/>
      <point x="299" y="569" type="curve" smooth="yes"/>
      <point x="299" y="475"/>
      <point x="178" y="339"/>
    </contour>
    <contour>
      <point x="362" y="335" type="move" name="mid"/>
    </contour>
    <contour>
      <point x="402" y="391" type="move" name="caron.alt"/>
    </contour>
  </outline>
</glyph>
<glyph name="m" format="1">
  <advance width="487"/>
  <unicode hex="006D"/>
  <outline>
    <contour>
      <point x="578" y="90" type="curve"/>
      <point x="590" y="102"/>
      <point x="562" y="123"/>
      <point x="553" y="113" type="curve" smooth="yes"/>
      <point x="529" y="86"/>
      <point x="482" y="41"/>
      <point x="444" y="41" type="curve" smooth="yes"/>
      <point x="428" y="40"/>
      <point x="420" y="50"/>
      <point x="420" y="66" type="curve" smooth="yes"/>
      <point x="417" y="123"/>
      <point x="489" y="255"/>
      <point x="471" y="301" type="curve" smooth="yes"/>
      <point x="466" y="314"/>
      <point x="455" y="321"/>
      <point x="441" y="322" type="curve" smooth="yes"/>
      <point x="397" y="323"/>
      <point x="320" y="258"/>
      <point x="260" y="82" type="curve"/>
      <point x="284" y="188"/>
      <point x="311" y="272"/>
      <point x="297" y="303" type="curve" smooth="yes"/>
      <point x="293" y="312"/>
      <point x="285" y="317"/>
      <point x="273" y="317" type="curve" smooth="yes"/>
      <point x="235" y="317"/>
      <point x="162" y="253"/>
      <point x="87" y="65" type="curve"/>
      <point x="112" y="199"/>
      <point x="128" y="272"/>
      <point x="137" y="303" type="curve" smooth="yes"/>
      <point x="143" y="323"/>
      <point x="132" y="329"/>
      <point x="124" y="330" type="curve" smooth="yes"/>
      <point x="112" y="330"/>
      <point x="97" y="323"/>
      <point x="86" y="284" type="curve" smooth="yes"/>
      <point x="76" y="249"/>
      <point x="59" y="183"/>
      <point x="42" y="55" type="curve" smooth="yes"/>
      <point x="38" y="24"/>
      <point x="42" y="-3"/>
      <point x="67" y="-3" type="curve" smooth="yes"/>
      <point x="94" y="-3"/>
      <point x="98" y="2"/>
      <point x="124" y="63" type="curve" smooth="yes"/>
      <point x="160" y="152"/>
      <point x="238" y="275"/>
      <point x="251" y="262" type="curve" smooth="yes"/>
      <point x="258" y="254"/>
      <point x="218" y="101"/>
      <point x="214" y="32" type="curve" smooth="yes"/>
      <point x="212" y="3"/>
      <point x="227" y="-3"/>
      <point x="237" y="-3" type="curve" smooth="yes"/>
      <point x="246" y="-3"/>
      <point x="261" y="-2"/>
      <point x="277" y="40" type="curve" smooth="yes"/>
      <point x="314" y="131"/>
      <point x="402" y="285"/>
      <point x="417" y="259" type="curve" smooth="yes"/>
      <point x="429" y="238"/>
      <point x="367" y="127"/>
      <point x="371" y="52" type="curve" smooth="yes"/>
      <point x="373" y="16"/>
      <point x="400" y="0"/>
      <point x="425" y="-2" type="curve" smooth="yes"/>
      <point x="468" y="-7"/>
      <point x="526" y="21"/>
    </contour>
    <contour>
      <point x="332" y="333" type="move" name="top"/>
    </contour>
  </outline>
</glyph>
<glyph name="s" format="1">
  <advance width="294"/>
  <unicode hex="0073"/>
  <outline>
    <contour>
      <point x="171" y="-3" type="curve" smooth="yes"/>
      <point x="278" y="-3"/>
      <point x="338" y="45"/>
      <point x="381" y="95" type="curve"/>
      <point x="387" y="104"/>
      <point x="367" y="138"/>
      <point x="359" y="128" type="curve" smooth="yes"/>
      <point x="345" y="111"/>
      <point x="306" y="56"/>
      <point x="244" y="43" type="curve"/>
      <point x="306" y="149"/>
      <point x="164" y="239"/>
      <point x="191" y="288" type="curve" smooth="yes"/>
      <point x="210" y="323"/>
      <point x="162" y="354"/>
      <point x="139" y="309" type="curve" smooth="yes"/>
      <point x="51" y="134"/>
      <point x="29" y="97"/>
      <point x="18" y="70" type="curve"/>
      <point x="26" y="41"/>
      <point x="78" y="-2"/>
    </contour>
    <contour>
      <point x="149" y="37" type="curve" smooth="yes"/>
      <point x="111" y="38"/>
      <point x="81" y="60"/>
      <point x="68" y="78" type="curve"/>
      <point x="85" y="110"/>
      <point x="141" y="215"/>
      <point x="141" y="215" type="curve"/>
      <point x="151" y="236" type="line"/>
      <point x="237" y="109"/>
      <point x="227" y="34"/>
    </contour>
    <contour>
      <point x="146" y="14" type="move" name="bot"/>
    </contour>
    <contour>
      <point x="252" y="333" type="move" name="top"/>
    </contour>
  </outline>
</glyph>
<glyph name="y" format="1">
  <advance width="346"/>
  <unicode hex="0079"/>
  <outline>
    <contour>
      <point x="61" y="-322" type="curve" smooth="yes"/>
      <point x="204" y="-322"/>
      <point x="242" y="-141"/>
      <point x="265" y="-21" type="curve"/>
      <point x="334" y="37"/>
      <point x="373" y="60"/>
      <point x="420" y="76" type="curve"/>
      <point x="441" y="80"/>
      <point x="429" y="124"/>
      <point x="406" y="119" type="curve" smooth="yes"/>
      <point x="370" y="111"/>
      <point x="330" y="80"/>
      <point x="271" y="33" type="curve"/>
      <point x="271" y="33"/>
      <point x="286" y="105"/>
      <point x="294" y="146" type="curve" smooth="yes"/>
      <point x="315" y="247"/>
      <point x="331" y="273"/>
      <point x="331" y="317" type="curve" smooth="yes"/>
      <point x="331" y="323"/>
      <point x="325" y="326"/>
      <point x="314" y="326" type="curve" smooth="yes"/>
      <point x="286" y="326"/>
      <point x="272" y="309"/>
      <point x="266" y="286" type="curve" smooth="yes"/>
      <point x="234" y="162" type="line" smooth="yes"/>
      <point x="226" y="130"/>
      <point x="188" y="47"/>
      <point x="135" y="47" type="curve" smooth="yes"/>
      <point x="101" y="47"/>
      <point x="97" y="90"/>
      <point x="97" y="113" type="curve" smooth="yes"/>
      <point x="97" y="159"/>
      <point x="117" y="214"/>
      <point x="134" y="266" type="curve" smooth="yes"/>
      <point x="142" y="288"/>
      <point x="148" y="301"/>
      <point x="148" y="317" type="curve" smooth="yes"/>
      <point x="148" y="326"/>
      <point x="138" y="332"/>
      <point x="135" y="332" type="curve" smooth="yes"/>
      <point x="114" y="332"/>
      <point x="105" y="319"/>
      <point x="98" y="306" type="curve" smooth="yes"/>
      <point x="70" y="253"/>
      <point x="44" y="176"/>
      <point x="44" y="99" type="curve" smooth="yes"/>
      <point x="44" y="50"/>
      <point x="67" y="0"/>
      <point x="118" y="0" type="curve" smooth="yes"/>
      <point x="175" y="0"/>
      <point x="217" y="48"/>
      <point x="228" y="77" type="curve"/>
      <point x="203" y="-8" type="line"/>
      <point x="149" y="-49"/>
      <point x="95" y="-82"/>
      <point x="53" y="-130" type="curve" smooth="yes"/>
      <point x="26" y="-160"/>
      <point x="-19" y="-216"/>
      <point x="-12" y="-264" type="curve" smooth="yes"/>
      <point x="-7" y="-294"/>
      <point x="22" y="-322"/>
    </contour>
    <contour>
      <point x="64" y="-281" type="curve" smooth="yes"/>
      <point x="47" y="-278"/>
      <point x="34" y="-267"/>
      <point x="34" y="-244" type="curve" smooth="yes"/>
      <point x="34" y="-201"/>
      <point x="90" y="-132"/>
      <point x="200" y="-62" type="curve"/>
      <point x="189" y="-101"/>
      <point x="161" y="-295"/>
    </contour>
    <contour>
      <point x="242" y="333" type="move" name="top"/>
    </contour>
  </outline>
</glyph>
<glyph name="bar" format="1">
  <advance width="369"/>
  <unicode hex="007C"/>
  <outline>
    <contour>
      <point x="151" y="-69" type="line" smooth="yes"/>
      <point x="146" y="-93"/>
      <point x="187" y="-101"/>
      <point x="192" y="-75" type="curve" smooth="yes"/>
      <point x="346" y="638" type="line" smooth="yes"/>
      <point x="354" y="673"/>
      <point x="314" y="683"/>
      <point x="305" y="643" type="curve" smooth="yes"/>
    </contour>
  </outline>
</glyph>
<glyph name="dieresis" format="1">
  <advance width="350"/>
  <unicode hex="00A8"/>
  <outline>
    <contour>
      <point x="86" y="455" type="curve" smooth="yes"/>
      <point x="111" y="455"/>
      <point x="126" y="472"/>
      <point x="126" y="497" type="curve" smooth="yes"/>
      <point x="126" y="520"/>
      <point x="113" y="532"/>
      <point x="91" y="532" type="curve" smooth="yes"/>
      <point x="66" y="532"/>
      <point x="53" y="515"/>
      <point x="53" y="490" type="curve" smooth="yes"/>
      <point x="53" y="467"/>
      <point x="64" y="455"/>
    </contour>
    <contour>
      <point x="273" y="455" type="curve" smooth="yes"/>
      <point x="298" y="455"/>
      <point x="312" y="472"/>
      <point x="312" y="497" type="curve" smooth="yes"/>
      <point x="312" y="520"/>
      <point x="299" y="532"/>
      <point x="277" y="532" type="curve" smooth="yes"/>
      <point x="252" y="532"/>
      <point x="239" y="515"/>
      <point x="239" y="490" type="curve" smooth="yes"/>
      <point x="239" y="467"/>
      <point x="251" y="455"/>
    </contour>
    <contour>
      <point x="164" y="333" type="move" name="_top"/>
    </contour>
  </outline>
</glyph>
<glyph name="guillemotleft" format="1">
  <advance width="492"/>
  <unicode hex="00AB"/>
  <outline>
    <contour>
      <point x="227" y="40" type="curve" smooth="yes"/>
      <point x="240" y="32"/>
      <point x="262" y="37"/>
      <point x="262" y="54" type="curve" smooth="yes"/>
      <point x="262" y="78"/>
      <point x="241" y="84"/>
      <point x="225" y="99" type="curve"/>
      <point x="122" y="187" type="line"/>
      <point x="245" y="273" type="line" smooth="yes"/>
      <point x="259" y="283"/>
      <point x="272" y="291"/>
      <point x="272" y="306" type="curve" smooth="yes"/>
      <point x="272" y="322"/>
      <point x="262" y="330"/>
      <point x="250" y="330" type="curve" smooth="yes"/>
      <point x="231" y="330"/>
      <point x="215" y="311"/>
      <point x="191" y="293" type="curve" smooth="yes"/>
      <point x="156" y="268"/>
      <point x="83" y="236"/>
      <point x="83" y="182" type="curve" smooth="yes"/>
      <point x="83" y="162"/>
      <point x="92" y="150"/>
      <point x="103" y="140" type="curve" smooth="yes"/>
      <point x="146" y="99"/>
      <point x="178" y="67"/>
    </contour>
    <contour>
      <point x="423" y="40" type="curve" smooth="yes"/>
      <point x="437" y="32"/>
      <point x="458" y="37"/>
      <point x="458" y="54" type="curve" smooth="yes"/>
      <point x="458" y="78"/>
      <point x="438" y="84"/>
      <point x="421" y="99" type="curve"/>
      <point x="319" y="187" type="line"/>
      <point x="442" y="273" type="line" smooth="yes"/>
      <point x="456" y="283"/>
      <point x="469" y="291"/>
      <point x="469" y="306" type="curve" smooth="yes"/>
      <point x="469" y="322"/>
      <point x="459" y="330"/>
      <point x="447" y="330" type="curve" smooth="yes"/>
      <point x="428" y="330"/>
      <point x="413" y="311"/>
      <point x="389" y="293" type="curve" smooth="yes"/>
      <point x="353" y="268"/>
      <point x="279" y="236"/>
      <point x="279" y="182" type="curve" smooth="yes"/>
      <point x="279" y="162"/>
      <point x="289" y="150"/>
      <point x="300" y="140" type="curve" smooth="yes"/>
      <point x="342" y="99"/>
      <point x="375" y="66"/>
    </contour>
  </outline>
</glyph>
<glyph name="macron" format="1">
  <advance width="205"/>
  <unicode hex="00AF"/>
  <outline>
    <contour>
      <point x="35" y="431" type="curve" smooth="yes"/>
      <point x="204" y="447" type="line" smooth="yes"/>
      <point x="217" y="449"/>
      <point x="222" y="459"/>
      <point x="222" y="468" type="curve" smooth="yes"/>
      <point x="221" y="476"/>
      <point x="218" y="483"/>
      <point x="202" y="482" type="curve" smooth="yes"/>
      <point x="35" y="471" type="line" smooth="yes"/>
      <point x="20" y="470"/>
      <point x="16" y="460"/>
      <point x="16" y="450" type="curve" smooth="yes"/>
      <point x="16" y="436"/>
      <point x="23" y="429"/>
    </contour>
    <contour>
      <point x="119" y="462" type="move" name="_mid"/>
    </contour>
    <contour>
      <point x="118" y="333" type="move" name="_top"/>
    </contour>
  </outline>
</glyph>
<glyph name="threequarters" format="1">
  <advance width="1052"/>
  <unicode hex="00BE"/>
  <outline>
    <contour>
      <point x="789" y="-19" type="curve" smooth="yes"/>
      <point x="796" y="-19"/>
      <point x="806" y="-13"/>
      <point x="809" y="3" type="curve" smooth="yes"/>
      <point x="825" y="83" type="line"/>
      <point x="844" y="83"/>
      <point x="885" y="81"/>
      <point x="906" y="82" type="curve" smooth="yes"/>
      <point x="929" y="83"/>
      <point x="933" y="125"/>
      <point x="919" y="124" type="curve" smooth="yes"/>
      <point x="909" y="123"/>
      <point x="894" y="122"/>
      <point x="836" y="122" type="curve"/>
      <point x="841" y="146"/>
      <point x="870" y="273"/>
      <point x="879" y="311" type="curve" smooth="yes"/>
      <point x="881" y="321"/>
      <point x="875" y="329"/>
      <point x="859" y="329" type="curve" smooth="yes"/>
      <point x="839" y="329"/>
      <point x="833" y="320"/>
      <point x="829" y="306" type="curve" smooth="yes"/>
      <point x="822" y="278"/>
      <point x="790" y="135"/>
      <point x="788" y="125" type="curve"/>
      <point x="774" y="125"/>
      <point x="683" y="124"/>
      <point x="674" y="124" type="curve"/>
      <point x="700" y="202"/>
      <point x="764" y="386"/>
      <point x="788" y="464" type="curve" smooth="yes"/>
      <point x="794" y="484"/>
      <point x="754" y="503"/>
      <point x="741" y="465" type="curve" smooth="yes"/>
      <point x="712" y="388"/>
      <point x="650" y="202"/>
      <point x="625" y="126" type="curve"/>
      <point x="611" y="88"/>
      <point x="618" y="79"/>
      <point x="640" y="79" type="curve" smooth="yes"/>
      <point x="690" y="79"/>
      <point x="718" y="82"/>
      <point x="778" y="82" type="curve"/>
      <point x="763" y="9" type="line" smooth="yes"/>
      <point x="758" y="-12"/>
      <point x="773" y="-20"/>
    </contour>
    <contour>
      <point x="377" y="5" type="curve" smooth="yes"/>
      <point x="627" y="564" type="line" smooth="yes"/>
      <point x="643" y="598"/>
      <point x="603" y="629"/>
      <point x="581" y="580" type="curve" smooth="yes"/>
      <point x="329" y="28" type="line" smooth="yes"/>
      <point x="307" y="-22"/>
      <point x="361" y="-32"/>
    </contour>
    <contour>
      <point x="364" y="344" type="curve" smooth="yes"/>
      <point x="364" y="415"/>
      <point x="339" y="456"/>
      <point x="266" y="479" type="curve"/>
      <point x="318" y="495"/>
      <point x="364" y="536"/>
      <point x="360" y="600" type="curve" smooth="yes"/>
      <point x="357" y="652"/>
      <point x="308" y="691"/>
      <point x="251" y="694" type="curve" smooth="yes"/>
      <point x="184" y="698"/>
      <point x="137" y="682"/>
      <point x="103" y="632" type="curve" smooth="yes"/>
      <point x="93" y="619"/>
      <point x="121" y="597"/>
      <point x="134" y="615" type="curve" smooth="yes"/>
      <point x="181" y="678"/>
      <point x="312" y="669"/>
      <point x="312" y="595" type="curve" smooth="yes"/>
      <point x="312" y="535"/>
      <point x="267" y="493"/>
      <point x="158" y="493" type="curve" smooth="yes"/>
      <point x="142" y="493"/>
      <point x="135" y="485"/>
      <point x="135" y="477" type="curve" smooth="yes"/>
      <point x="135" y="469"/>
      <point x="143" y="461"/>
      <point x="153" y="461" type="curve" smooth="yes"/>
      <point x="245" y="461"/>
      <point x="316" y="438"/>
      <point x="313" y="345" type="curve" smooth="yes"/>
      <point x="308" y="221"/>
      <point x="143" y="202"/>
      <point x="88" y="281" type="curve" smooth="yes"/>
      <point x="54" y="331"/>
      <point x="30" y="298"/>
      <point x="36" y="282" type="curve" smooth="yes"/>
      <point x="48" y="249"/>
      <point x="96" y="199"/>
      <point x="181" y="193" type="curve" smooth="yes"/>
      <point x="291" y="184"/>
      <point x="365" y="250"/>
    </contour>
  </outline>
</glyph>
<glyph name="thorn" format="1">
  <advance width="313"/>
  <unicode hex="00FE"/>
  <outline>
    <contour>
      <point x="-10" y="-197" type="line" smooth="yes"/>
      <point x="-17" y="-234"/>
      <point x="28" y="-241"/>
      <point x="36" y="-208" type="curve"/>
      <point x="80" y="29" type="line"/>
      <point x="103" y="9"/>
      <point x="131" y="0"/>
      <point x="158" y="0" type="curve" smooth="yes"/>
      <point x="193" y="0"/>
      <point x="226" y="15"/>
      <point x="245" y="41" type="curve"/>
      <point x="324" y="62"/>
      <point x="366" y="82"/>
      <point x="399" y="104" type="curve" smooth="yes"/>
      <point x="415" y="114"/>
      <point x="395" y="149"/>
      <point x="378" y="140" type="curve" smooth="yes"/>
      <point x="358" y="128"/>
      <point x="321" y="105"/>
      <point x="273" y="92" type="curve"/>
      <point x="292" y="120"/>
      <point x="304" y="165"/>
      <point x="304" y="224" type="curve" smooth="yes"/>
      <point x="304" y="276"/>
      <point x="276" y="326"/>
      <point x="216" y="326" type="curve" smooth="yes"/>
      <point x="195" y="326"/>
      <point x="143" y="311"/>
      <point x="112" y="250" type="curve"/>
      <point x="158" y="483" type="line" smooth="yes"/>
      <point x="166" y="520"/>
      <point x="127" y="533"/>
      <point x="120" y="500" type="curve" smooth="yes"/>
      <point x="103" y="429"/>
      <point x="82" y="319"/>
      <point x="74" y="274" type="curve" smooth="yes"/>
    </contour>
    <contour>
      <point x="156" y="44" type="curve" smooth="yes"/>
      <point x="136" y="44"/>
      <point x="113" y="51"/>
      <point x="87" y="66" type="curve"/>
      <point x="108" y="189"/>
      <point x="139" y="278"/>
      <point x="208" y="278" type="curve" smooth="yes"/>
      <point x="241" y="278"/>
      <point x="251" y="246"/>
      <point x="251" y="213" type="curve" smooth="yes"/>
      <point x="251" y="113"/>
      <point x="218" y="44"/>
    </contour>
  </outline>
</glyph>
<glyph name="caron" format="1">
  <advance width="295"/>
  <unicode hex="02C7"/>
  <outline>
    <contour>
      <point x="147" y="415" type="curve" smooth="yes"/>
      <point x="181" y="412"/>
      <point x="192" y="442"/>
      <point x="216" y="476" type="curve" smooth="yes"/>
      <point x="301" y="595" type="line" smooth="yes"/>
      <point x="307" y="604"/>
      <point x="315" y="621"/>
      <point x="295" y="624" type="curve" smooth="yes"/>
      <point x="278" y="627"/>
      <point x="269" y="618"/>
      <point x="252" y="593" type="curve" smooth="yes"/>
      <point x="158" y="454" type="line"/>
      <point x="139" y="574"/>
      <point x="148" y="625"/>
      <point x="126" y="625" type="curve" smooth="yes"/>
      <point x="115" y="625"/>
      <point x="102" y="620"/>
      <point x="105" y="588" type="curve" smooth="yes"/>
      <point x="117" y="493" type="line" smooth="yes"/>
      <point x="124" y="440"/>
      <point x="123" y="417"/>
    </contour>
    <contour>
      <point x="134" y="333" type="move" name="_top"/>
    </contour>
  </outline>
</glyph>
<glyph name="firsttonechinese" format="1">
  <advance width="205"/>
  <unicode hex="02C9"/>
  <outline>
    <contour>
      <point x="25" y="600" type="curve" smooth="yes"/>
      <point x="194" y="616" type="line" smooth="yes"/>
      <point x="207" y="618"/>
      <point x="212" y="628"/>
      <point x="212" y="637" type="curve" smooth="yes"/>
      <point x="211" y="645"/>
      <point x="208" y="652"/>
      <point x="192" y="651" type="curve" smooth="yes"/>
      <point x="25" y="640" type="line" smooth="yes"/>
      <point x="10" y="639"/>
      <point x="6" y="629"/>
      <point x="6" y="619" type="curve" smooth="yes"/>
      <point x="6" y="605"/>
      <point x="13" y="598"/>
    </contour>
    <contour>
      <point x="114" y="333" type="move" name="_top"/>
    </contour>
  </outline>
</glyph>
<glyph name="partialdiff" format="1">
  <advance width="354"/>
  <unicode hex="2202"/>
  <outline>
    <contour>
      <point x="22" y="52"/>
      <point x="86" y="-7"/>
      <point x="174" y="0" type="curve" smooth="yes"/>
      <point x="300" y="10"/>
      <point x="361" y="139"/>
      <point x="357" y="328" type="curve" smooth="yes"/>
      <point x="355" y="468"/>
      <point x="284" y="567"/>
      <point x="147" y="567" type="curve" smooth="yes"/>
      <point x="120" y="567"/>
      <point x="118" y="556"/>
      <point x="118" y="546" type="curve" smooth="yes"/>
      <point x="118" y="536"/>
      <point x="128" y="525"/>
      <point x="142" y="525" type="curve" smooth="yes"/>
      <point x="247" y="525"/>
      <point x="306" y="445"/>
      <point x="306" y="312" type="curve"/>
      <point x="284" y="330"/>
      <point x="255" y="339"/>
      <point x="223" y="340" type="curve" smooth="yes"/>
      <point x="132" y="343"/>
      <point x="22" y="275"/>
      <point x="22" y="142" type="curve" smooth="yes"/>
    </contour>
    <contour>
      <point x="309" y="194"/>
      <point x="267" y="53"/>
      <point x="182" y="43" type="curve" smooth="yes"/>
      <point x="114" y="35"/>
      <point x="74" y="74"/>
      <point x="74" y="141" type="curve" smooth="yes"/>
      <point x="74" y="243"/>
      <point x="149" y="296"/>
      <point x="223" y="297" type="curve" smooth="yes"/>
      <point x="250" y="297"/>
      <point x="278" y="290"/>
      <point x="301" y="276" type="curve"/>
    </contour>
  </outline>
</glyph>
<glyph name="summation" format="1">
  <advance width="698"/>
  <unicode hex="2211"/>
  <outline>
    <contour>
      <point x="362" y="640" type="curve" smooth="yes"/>
      <point x="272" y="640"/>
      <point x="215" y="630"/>
      <point x="158" y="609" type="curve" smooth="yes"/>
      <point x="133" y="599"/>
      <point x="144" y="556"/>
      <point x="174" y="567" type="curve" smooth="yes"/>
      <point x="194" y="575"/>
      <point x="218" y="581"/>
      <point x="246" y="585" type="curve"/>
      <point x="407" y="314" type="line"/>
      <point x="218" y="145"/>
      <point x="97" y="51"/>
      <point x="101" y="23" type="curve" smooth="yes"/>
      <point x="104" y="2"/>
      <point x="132" y="-3"/>
      <point x="168" y="40" type="curve"/>
      <point x="316" y="-9"/>
      <point x="469" y="-70"/>
      <point x="678" y="22" type="curve"/>
      <point x="695" y="27"/>
      <point x="679" y="69"/>
      <point x="664" y="63" type="curve" smooth="yes"/>
      <point x="546" y="14"/>
      <point x="433" y="-13"/>
      <point x="198" y="80" type="curve"/>
      <point x="263" y="148"/>
      <point x="359" y="213"/>
      <point x="462" y="306" type="curve"/>
      <point x="295" y="590" type="line"/>
      <point x="319" y="592"/>
      <point x="347" y="593"/>
      <point x="376" y="593" type="curve" smooth="yes"/>
      <point x="447" y="593"/>
      <point x="566" y="588"/>
      <point x="635" y="589" type="curve" smooth="yes"/>
      <point x="703" y="591"/>
      <point x="708" y="599"/>
      <point x="708" y="613" type="curve" smooth="yes"/>
      <point x="708" y="629"/>
      <point x="696" y="642"/>
      <point x="684" y="641" type="curve" smooth="yes"/>
      <point x="553" y="630"/>
      <point x="483" y="640"/>
    </contour>
  </outline>
</glyph>
<glyph name="infinity" format="1">
  <advance width="653.004"/>
  <unicode hex="221E"/>
  <outline>
    <contour>
      <point x="108" y="230" type="curve" smooth="yes"/>
      <point x="103" y="156"/>
      <point x="150" y="103"/>
      <point x="221" y="114" type="curve" smooth="yes"/>
      <point x="286" y="124"/>
      <point x="323" y="174"/>
      <point x="360" y="218" type="curve"/>
      <point x="391" y="171"/>
      <point x="435" y="111"/>
      <point x="514" y="115" type="curve" smooth="yes"/>
      <point x="573" y="118"/>
      <point x="607" y="170"/>
      <point x="613" y="235" type="curve" smooth="yes"/>
      <point x="620" y="315"/>
      <point x="582" y="379"/>
      <point x="501" y="369" type="curve" smooth="yes"/>
      <point x="442" y="362"/>
      <point x="406" y="324"/>
      <point x="369" y="282" type="curve"/>
      <point x="336" y="330"/>
      <point x="303" y="386"/>
      <point x="220" y="374" type="curve" smooth="yes"/>
      <point x="147" y="363"/>
      <point x="113" y="304"/>
    </contour>
    <contour>
      <point x="153" y="252" type="curve" smooth="yes"/>
      <point x="159" y="287"/>
      <point x="184" y="328"/>
      <point x="224" y="334" type="curve" smooth="yes"/>
      <point x="281" y="343"/>
      <point x="324" y="280"/>
      <point x="340" y="248" type="curve"/>
      <point x="318" y="228"/>
      <point x="275" y="166"/>
      <point x="227" y="158" type="curve" smooth="yes"/>
      <point x="169" y="148"/>
      <point x="141" y="190"/>
    </contour>
    <contour>
      <point x="388" y="248" type="curve"/>
      <point x="406" y="270"/>
      <point x="454" y="317"/>
      <point x="498" y="322" type="curve" smooth="yes"/>
      <point x="544" y="327"/>
      <point x="578" y="300"/>
      <point x="574" y="246" type="curve" smooth="yes"/>
      <point x="571" y="200"/>
      <point x="557" y="160"/>
      <point x="506" y="160" type="curve" smooth="yes"/>
      <point x="454" y="160"/>
      <point x="420" y="194"/>
    </contour>
  </outline>
</glyph>
<glyph name="caron.alt" format="1">
  <advance width="600"/>
  <outline>
    <contour>
      <point x="63" y="431" type="curve" smooth="yes"/>
      <point x="60" y="425"/>
      <point x="66" y="418"/>
      <point x="72" y="419" type="curve" smooth="yes"/>
      <point x="91" y="422"/>
      <point x="169" y="482"/>
      <point x="197" y="527" type="curve" smooth="yes"/>
      <point x="221" y="566"/>
      <point x="174" y="599"/>
      <point x="153" y="559" type="curve" smooth="yes"/>
      <point x="118" y="492"/>
      <point x="72" y="448"/>
    </contour>
    <contour>
      <point x="54" y="333" type="move" name="_caron.alt"/>
    </contour>
  </outline>
</glyph>
